HIERARCHY
ROOT Hips
{
	OFFSET	0.00	0.00	0.00
	CHANNELS 6 Xposition Yposition Zposition Zrotation Xrotation Yrotation
	JOINT LeftUpLeg
	{
		OFFSET	 0.126116	-0.065224	 0.014019
		CHANNELS 3 Zrotation Xrotation Yrotation
		JOINT LeftLeg
		{
			OFFSET	 0.000000	 0.569914	 0.000000
			CHANNELS 3 Zrotation Xrotation Yrotation
			JOINT LeftFoot
			{
				OFFSET	 0.000000	 0.544423	 0.000000
				CHANNELS 3 Zrotation Xrotation Yrotation
				JOINT LeftToeBase
				{
					OFFSET	 0.000000	 0.207117	 0.000000
					CHANNELS 3 Zrotation Xrotation Yrotation
					End Site
					{
						OFFSET	 0.000000	 0.207117	 0.000000
					}
				}
			}
		}
	}
	JOINT RightUpLeg
	{
		OFFSET	-0.124023	-0.065224	 0.008373
		CHANNELS 3 Zrotation Xrotation Yrotation
		JOINT RightLeg
		{
			OFFSET	 0.000000	 0.570047	 0.000000
			CHANNELS 3 Zrotation Xrotation Yrotation
			JOINT RightFoot
			{
				OFFSET	 0.000000	 0.544354	 0.000000
				CHANNELS 3 Zrotation Xrotation Yrotation
				JOINT RightToeBase
				{
					OFFSET	 0.000000	 0.207540	 0.000000
					CHANNELS 3 Zrotation Xrotation Yrotation
					End Site
					{
						OFFSET	 0.000000	 0.207540	 0.000000
					}
				}
			}
		}
	}
	JOINT Spine
	{
		OFFSET	 0.000184	 0.117403	 0.007763
		CHANNELS 3 Zrotation Xrotation Yrotation
		JOINT Spine1
		{
			OFFSET	 0.000000	 0.137269	 0.000000
			CHANNELS 3 Zrotation Xrotation Yrotation
			JOINT Spine2
			{
				OFFSET	 0.000000	 0.156879	 0.000000
				CHANNELS 3 Zrotation Xrotation Yrotation
				JOINT LeftShoulder
				{
					OFFSET	 0.080501	 0.160143	 0.002496
					CHANNELS 3 Zrotation Xrotation Yrotation
					JOINT LeftArm
					{
						OFFSET	 0.000000	 0.164363	 0.000000
						CHANNELS 3 Zrotation Xrotation Yrotation
						JOINT LeftForeArm
						{
							OFFSET	 0.000000	 0.364576	 0.000000
							CHANNELS 3 Zrotation Xrotation Yrotation
							JOINT LeftHand
							{
								OFFSET	 0.000000	 0.360812	 0.000000
								CHANNELS 3 Zrotation Xrotation Yrotation
								JOINT LeftHandIndex1
								{
									OFFSET	 0.000000	 0.086006	 0.000000
									CHANNELS 3 Zrotation Xrotation Yrotation
									JOINT LeftHandIndex2
									{
										OFFSET	 0.000000	 0.047237	 0.000000
										CHANNELS 3 Zrotation Xrotation Yrotation
										JOINT LeftHandIndex3
										{
											OFFSET	-0.004284	 0.038165	 0.000551
											CHANNELS 3 Zrotation Xrotation Yrotation
											End Site
											{
												OFFSET	-0.004284	 0.038165	 0.000551
											}
										}
									}
								}
							}
						}
					}
				}
				JOINT Neck
				{
					OFFSET	 0.000000	 0.176489	 0.000000
					CHANNELS 3 Zrotation Xrotation Yrotation
					JOINT Head
					{
						OFFSET	 0.000000	 0.077941	 0.001747
						CHANNELS 3 Zrotation Xrotation Yrotation
						End Site
						{
							OFFSET	 0.000000	 0.077941	 0.001747
						}
					}
				}
				JOINT RightShoulder
				{
					OFFSET	-0.080363	 0.159706	-0.000306
					CHANNELS 3 Zrotation Xrotation Yrotation
					JOINT RightArm
					{
						OFFSET	 0.000000	 0.164196	 0.000000
						CHANNELS 3 Zrotation Xrotation Yrotation
						JOINT RightForeArm
						{
							OFFSET	 0.000000	 0.365611	 0.000000
							CHANNELS 3 Zrotation Xrotation Yrotation
							JOINT RightHand
							{
								OFFSET	 0.000000	 0.360648	 0.000000
								CHANNELS 3 Zrotation Xrotation Yrotation
								JOINT RightHandIndex1
								{
									OFFSET	 0.000000	 0.069977	 0.000000
									CHANNELS 3 Zrotation Xrotation Yrotation
									JOINT RightHandIndex2
									{
										OFFSET	 0.000000	 0.052305	 0.000000
										CHANNELS 3 Zrotation Xrotation Yrotation
										JOINT RightHandIndex3
										{
											OFFSET	 0.009002	 0.042196	 0.000782
											CHANNELS 3 Zrotation Xrotation Yrotation
											End Site
											{
												OFFSET	 0.009002	 0.042196	 0.000782
											}
										}
									}
								}
							}
						}
					}
				}
			}
		}
	}
}
MOTION
Frames:    6
Frame Time: 0.03333334
 0.443181	 1.213750	 0.566972	-1.130680	-17.088570	-174.284500	 179.259100	 42.010230	-20.965610	 10.142610	-33.539450	 18.074580	 45.786560	 66.632310	-34.583970	 1.292262	 28.425850	-2.713146	 164.588300	 42.828430	 33.235120	-7.916444	-35.624020	-12.879680	-43.201290	 64.205980	 30.959250	-1.288183	 28.361890	 2.710176	 0.693225	 5.897911	 15.040990	 1.366394	 10.339420	 3.607712	-0.112551	-7.253362	-15.943750	-118.727400	 15.437570	 97.591320	 55.998570	 19.029250	 6.450171	 5.620758	-0.709880	-31.070530	 59.459880	 9.512516	 49.967850	-6.580301	 5.266122	 0.000000	 0.000000	 0.000000	 0.000000	 0.000000	 0.000000	 0.000000	-1.852859	-1.915208	-1.227919	 0.597767	-10.313550	-4.505641	 123.807500	 15.092250	-98.905400	-34.745260	 14.135420	-5.081863	-13.588190	 0.415329	-8.525149	-41.628200	-65.496970	-63.212650	 15.208500	 5.323790	 0.000000	 0.000000	 0.000000	 0.000000	 0.000000	 0.000000	 0.000000
 0.443804	 1.230116	 0.549203	-0.920139	-13.631280	-174.170400	 179.942400	 35.070850	-21.878660	 8.640732	-29.489510	 16.007530	 39.081990	 67.178640	-29.234970	 1.292262	 28.425850	-2.713146	 167.139300	 36.223400	 32.715250	-6.558693	-30.721350	-9.817354	-35.231650	 65.230060	 23.513300	-1.288183	 28.361890	 2.710176	 1.346021	 4.790583	 7.186780	 0.407959	 7.857130	 3.727630	 0.476343	-6.844052	-15.651420	-119.236300	 13.503140	 96.754140	 42.496050	 21.694730	 13.258970	 31.497440	-2.880978	-23.022600	 47.922400	 7.590425	 56.411440	-6.580301	 5.266122	 0.000000	 0.000000	 0.000000	 0.000000	 0.000000	 0.000000	 0.000000	-1.257592	-0.035802	-1.396864	 0.244435	-10.547610	-4.360171	 124.290800	 13.229510	-98.017110	-35.914280	 18.379390	-5.995379	-12.530470	 0.503416	-14.827040	-42.524340	-64.253730	-64.371060	 15.208500	 5.323790	 0.000000	 0.000000	 0.000000	 0.000000	 0.000000	 0.000000	 0.000000
 0.445776	 1.247111	 0.523276	-0.495590	-11.045950	-174.404500	-179.107400	 28.274490	-23.107420	 6.977310	-24.572930	 12.958310	 29.798300	 67.707120	-21.109940	 1.292262	 28.425850	-2.713146	 169.623500	 29.079340	 32.291130	-5.259934	-25.499080	-5.545063	-23.758750	 66.695370	 12.765970	-1.288183	 28.361890	 2.710176	 1.787488	 3.365159	-4.831498	-0.347943	 6.950624	 3.788198	 0.831855	-7.407154	-15.252260	-119.587400	 10.715210	 95.467320	 39.078420	 22.951020	 17.457760	 42.257610	-4.387400	-11.393140	 44.751160	 8.846645	 56.359300	-6.580301	 5.266122	 0.000000	 0.000000	 0.000000	 0.000000	 0.000000	 0.000000	 0.000000	-0.299731	 2.797815	-1.738998	-0.005713	-10.388080	-4.145533	 124.683600	 10.558630	-96.664010	-32.312790	 20.788220	-7.707889	-23.233770	 1.346636	-24.244660	-37.663320	-59.938750	-60.803010	 15.208500	 5.323790	 0.000000	 0.000000	 0.000000	 0.000000	 0.000000	 0.000000	 0.000000
 0.447437	 1.256258	 0.506813	-0.274566	-9.959340	-174.371400	-178.837000	 24.328520	-23.379160	 5.965118	-21.364970	 11.133440	 24.130170	 67.701790	-15.993720	 1.292262	 28.425850	-2.713146	 170.999100	 25.360240	 32.115290	-4.393327	-21.729430	-3.373328	-17.556700	 66.544240	 6.769681	-1.288183	 28.361890	 2.710176	 1.794567	 2.701957	-11.547450	-1.266736	 4.975445	 3.741055	 1.315255	-6.911100	-14.868370	-119.754400	 9.110106	 94.715350	 35.754200	 24.072810	 21.279990	 50.686230	-5.198059	-4.476702	 42.436160	 8.656075	 55.442790	-6.580301	 5.266122	 0.000000	 0.000000	 0.000000	 0.000000	 0.000000	 0.000000	 0.000000	 0.063108	 4.547016	-1.860197	 0.059700	-9.840102	-4.046669	 124.589600	 9.168053	-95.910020	-31.527350	 23.194600	-8.469273	-27.039520	 1.861568	-29.769660	-35.417960	-57.477100	-57.631610	 15.208500	 5.323790	 0.000000	 0.000000	 0.000000	 0.000000	 0.000000	 0.000000	 0.000000
 0.448736	 1.263602	 0.492353	-0.112216	-8.144271	-174.033500	-178.782000	 19.780510	-23.243940	 5.031110	-18.268590	 9.253571	 18.009190	 67.641400	-10.638900	 1.292262	 28.425850	-2.713146	 172.187200	 20.869410	 31.996610	-3.652699	-18.338160	-1.516910	-11.569350	 66.137390	 1.457077	-1.288183	 28.361890	 2.710176	 1.759094	 2.245939	-17.701950	-2.172153	 2.547110	 3.631365	 1.840780	-6.001781	-14.378360	-120.022200	 7.545326	 93.987560	 27.612570	 25.762560	 27.686120	 65.153420	-6.068270	 2.739887	 35.489120	 7.599399	 56.348970	-6.580301	 5.266122	 0.000000	 0.000000	 0.000000	 0.000000	 0.000000	 0.000000	 0.000000	 0.241806	 6.369088	-1.866354	 0.192541	-9.198441	-3.971915	 124.340600	 7.930427	-95.221650	-33.128480	 27.947350	-8.880494	-27.709230	 2.329715	-34.988700	-34.530090	-56.521720	-55.319640	 15.208500	 5.323790	 0.000000	 0.000000	 0.000000	 0.000000	 0.000000	 0.000000	 0.000000
 0.449472	 1.269219	 0.480087	 0.046074	-6.460975	-173.830900	-178.646500	 15.890240	-23.232420	 4.153586	-15.250690	 7.434052	 12.318930	 67.296990	-5.532436	 1.292262	 28.425850	-2.713146	 173.374900	 16.749550	 32.131540	-2.949030	-14.984920	-0.012250	-6.827874	 65.416100	-2.684439	-1.288183	 28.361890	 2.710176	 1.734111	 1.868446	-23.700640	-2.494450	 1.548757	 3.499210	 2.080600	-5.616422	-13.779200	-120.479900	 5.895275	 93.224370	 21.937950	 23.140530	 29.811900	 69.225620	-6.388609	 9.642791	 37.666220	 9.421535	 49.387680	-6.580301	 5.266122	 0.000000	 0.000000	 0.000000	 0.000000	 0.000000	 0.000000	 0.000000	 0.289235	 7.974600	-1.776965	 0.339886	-8.439918	-3.882595	 123.973200	 6.746573	-94.555810	-34.990570	 31.973460	-8.396206	-27.836240	 2.837819	-40.413230	-35.016430	-55.226560	-51.692750	 15.208500	 5.323790	 0.000000	 0.000000	 0.000000	 0.000000	 0.000000	 0.000000	 0.000000
